<svg width="11" height="8" viewBox="0 0 11 8" fill="none" xmlns="http://www.w3.org/2000/svg">
<path d="M10.151 9.53674e-07L0.533805 9.53674e-07C0.436436 0.000306129 0.340994 0.0271611 0.257752 0.0776744C0.174511 0.128188 0.106621 0.200446 0.0613915 0.286674C0.0161626 0.3729 -0.0046943 0.469831 0.00106684 0.567029C0.00682799 0.664228 0.0389887 0.758016 0.0940882 0.838296L4.90266 7.78401C5.10195 8.072 5.58174 8.072 5.78156 7.78401L10.5901 0.838296C10.6458 0.758183 10.6784 0.664349 10.6845 0.566988C10.6906 0.469627 10.6699 0.372463 10.6246 0.286054C10.5793 0.199644 10.5112 0.127293 10.4277 0.0768609C10.3442 0.0264297 10.2485 -0.000153065 10.151 9.53674e-07Z" fill="white" fill-opacity="0.75"/>
<path d="M10.151 0.500001L10.1517 0.5C10.1579 0.49999 10.164 0.501671 10.1692 0.504859C10.1745 0.508048 10.1788 0.512624 10.1817 0.518089C10.1846 0.523552 10.1859 0.529696 10.1855 0.535854C10.1851 0.54201 10.183 0.547944 10.1795 0.55301L10.179 0.553691L5.37422 7.49399C5.3687 7.49656 5.35733 7.5 5.34191 7.5C5.32677 7.5 5.31562 7.49668 5.31015 7.4942L0.506332 0.555356C0.506246 0.555231 0.506161 0.555105 0.506076 0.554978C0.502596 0.549763 0.500562 0.543713 0.50019 0.537446C0.499811 0.531027 0.501188 0.524624 0.504174 0.518931C0.507161 0.513236 0.511645 0.508464 0.517141 0.505129C0.522551 0.501846 0.528739 0.500077 0.535058 0.500001L10.151 0.500001Z" stroke="black" stroke-opacity="0.75"/>
</svg>
