<svg width="9" height="8" viewBox="0 0 9 8" fill="none" xmlns="http://www.w3.org/2000/svg">
<path d="M7.45251 4.9588C8.3075 4.9588 9 5.63965 9 6.47965C9 7.31916 8.3075 8 7.45251 8C6.59801 8 5.90502 7.31916 5.90502 6.47965C5.90502 5.63965 6.59801 4.9588 7.45251 4.9588ZM3.63748 5.83108C4.01198 5.83108 4.31598 6.12975 4.31598 6.49768C4.31598 6.86511 4.01198 7.16427 3.63748 7.16427H0.678496C0.303998 7.16427 0 6.86511 0 6.49768C0 6.12975 0.303998 5.83108 0.678496 5.83108H3.63748ZM1.54749 0C2.40249 0 3.09498 0.680843 3.09498 1.52035C3.09498 2.36035 2.40249 3.0412 1.54749 3.0412C0.692996 3.0412 0 2.36035 0 1.52035C0 0.680843 0.692996 0 1.54749 0ZM8.322 0.854246C8.696 0.854246 9 1.15291 9 1.52035C9 1.88828 8.696 2.18695 8.322 2.18695H5.36302C4.98852 2.18695 4.68452 1.88828 4.68452 1.52035C4.68452 1.15291 4.98852 0.854246 5.36302 0.854246H8.322Z" fill="black" fill-opacity="0.75"/>
</svg>
