<svg width="20" height="23" viewBox="0 0 20 23" fill="none" xmlns="http://www.w3.org/2000/svg">
<path d="M18.3478 3.05157C18.3478 2.33352 18.3478 1.97449 18.2286 1.7001C18.125 1.45893 17.9595 1.26277 17.7558 1.13976C17.5238 1 17.2202 1 16.613 1H2.73478C2.12761 1 1.82402 1 1.59199 1.13976C1.38799 1.26269 1.22213 1.45884 1.11818 1.7001C1 1.97449 1 2.33352 1 3.05157V3.99657C1 4.31071 1 4.46715 1.03036 4.6146C1.05691 4.74588 1.10082 4.87137 1.16047 4.98645C1.22661 5.11467 1.32093 5.22622 1.50742 5.44805L6.99693 11.9387C7.1845 12.1605 7.27883 12.2721 7.34497 12.4003C7.4046 12.5157 7.44906 12.6414 7.47508 12.7721C7.50544 12.9183 7.50544 13.0735 7.50544 13.3799V19.4782C7.50544 20.5771 7.50544 21.1271 7.7006 21.458C7.78527 21.601 7.89377 21.7221 8.01943 21.8139C8.14509 21.9056 8.28527 21.966 8.43138 21.9914C8.76857 22.0503 9.18492 21.8054 10.0154 21.3131L10.8828 20.8002C11.232 20.595 11.4054 20.4924 11.5323 20.3386C11.6448 20.2027 11.7304 20.0389 11.7828 19.859C11.8424 19.6564 11.8424 19.4256 11.8424 18.9653V13.3902C11.8424 13.076 11.8424 12.9196 11.8728 12.7721C11.8993 12.6409 11.9432 12.5154 12.0029 12.4003C12.0679 12.2721 12.1622 12.1618 12.3466 11.9438L12.3509 11.9387L17.8404 5.44805C18.0269 5.22622 18.1201 5.11467 18.1874 4.98645C18.2471 4.87143 18.291 4.74592 18.3175 4.6146C18.3478 4.46971 18.3478 4.31328 18.3478 4.00683V3.05157Z" stroke="black" stroke-opacity="0.5" stroke-width="2" stroke-linecap="round" stroke-linejoin="round"/>
</svg>
