<svg width="25" height="25" viewBox="0 0 25 25" fill="none" xmlns="http://www.w3.org/2000/svg">
<path fill-rule="evenodd" clip-rule="evenodd" d="M0 12.5C0 5.59625 5.59625 0 12.5 0C19.4037 0 25 5.59625 25 12.5C25 19.4037 19.4037 25 12.5 25C5.59625 25 0 19.4037 0 12.5ZM12.5 2.5C9.84783 2.5 7.3043 3.55357 5.42893 5.42893C3.55357 7.3043 2.5 9.84783 2.5 12.5C2.5 15.1522 3.55357 17.6957 5.42893 19.5711C7.3043 21.4464 9.84783 22.5 12.5 22.5C15.1522 22.5 17.6957 21.4464 19.5711 19.5711C21.4464 17.6957 22.5 15.1522 22.5 12.5C22.5 9.84783 21.4464 7.3043 19.5711 5.42893C17.6957 3.55357 15.1522 2.5 12.5 2.5Z" fill="#50C2C9"/>
<path fill-rule="evenodd" clip-rule="evenodd" d="M13.7495 6.24999C13.7495 5.91847 13.6178 5.60053 13.3834 5.36611C13.149 5.13169 12.831 4.99999 12.4995 4.99999C12.168 4.99999 11.85 5.13169 11.6156 5.36611C11.3812 5.60053 11.2495 5.91847 11.2495 6.24999V11.25H6.24951C5.91799 11.25 5.60005 11.3817 5.36563 11.6161C5.13121 11.8505 4.99951 12.1685 4.99951 12.5C4.99951 12.8315 5.13121 13.1495 5.36563 13.3839C5.60005 13.6183 5.91799 13.75 6.24951 13.75H11.2495V18.75C11.2495 19.0815 11.3812 19.3995 11.6156 19.6339C11.85 19.8683 12.168 20 12.4995 20C12.831 20 13.149 19.8683 13.3834 19.6339C13.6178 19.3995 13.7495 19.0815 13.7495 18.75V13.75H18.7495C19.081 13.75 19.399 13.6183 19.6334 13.3839C19.8678 13.1495 19.9995 12.8315 19.9995 12.5C19.9995 12.1685 19.8678 11.8505 19.6334 11.6161C19.399 11.3817 19.081 11.25 18.7495 11.25H13.7495V6.24999Z" fill="#50C2C9"/>
</svg>
