<svg width="24" height="24" viewBox="0 0 24 24" fill="none" xmlns="http://www.w3.org/2000/svg">
<circle cx="12" cy="12" r="12" fill="url(#paint0_linear_62_476)"/>
<path d="M13.2833 6.84438C13.2833 6.29644 12.8406 5.85376 12.2927 5.85376C11.7447 5.85376 11.302 6.29644 11.302 6.84438V11.3022H6.84426C6.29632 11.3022 5.85364 11.7448 5.85364 12.2928C5.85364 12.8407 6.29632 13.2834 6.84426 13.2834H11.302V17.7412C11.302 18.2891 11.7447 18.7318 12.2927 18.7318C12.8406 18.7318 13.2833 18.2891 13.2833 17.7412V13.2834H17.7411C18.289 13.2834 18.7317 12.8407 18.7317 12.2928C18.7317 11.7448 18.289 11.3022 17.7411 11.3022H13.2833V6.84438Z" fill="white"/>
<defs>
<linearGradient id="paint0_linear_62_476" x1="12" y1="0" x2="12" y2="24" gradientUnits="userSpaceOnUse">
<stop stop-color="#EB7724"/>
<stop offset="1" stop-color="#EB7724" stop-opacity="0.67"/>
</linearGradient>
</defs>
</svg>
