<svg width="24" height="24" viewBox="0 0 24 24" fill="none" xmlns="http://www.w3.org/2000/svg">
<circle cx="12" cy="12" r="12" fill="url(#paint0_linear_779_2635)"/>
<path d="M13.2833 6.84432C13.2833 6.29638 12.8406 5.8537 12.2927 5.8537C11.7447 5.8537 11.302 6.29638 11.302 6.84432V11.3021H6.84426C6.29632 11.3021 5.85364 11.7448 5.85364 12.2927C5.85364 12.8407 6.29632 13.2833 6.84426 13.2833H11.302V17.7411C11.302 18.2891 11.7447 18.7317 12.2927 18.7317C12.8406 18.7317 13.2833 18.2891 13.2833 17.7411V13.2833H17.7411C18.289 13.2833 18.7317 12.8407 18.7317 12.2927C18.7317 11.7448 18.289 11.3021 17.7411 11.3021H13.2833V6.84432Z" fill="white"/>
<defs>
<linearGradient id="paint0_linear_779_2635" x1="12" y1="0" x2="12" y2="24" gradientUnits="userSpaceOnUse">
<stop stop-color="#38B7BF"/>
<stop offset="1" stop-color="#6AE0D9"/>
</linearGradient>
</defs>
</svg>
