<svg width="17" height="17" viewBox="0 0 17 17" fill="none" xmlns="http://www.w3.org/2000/svg">
<path d="M1.06665 8.5C1.06665 4.9645 1.06665 3.19675 2.16465 2.098C3.26415 1 5.03115 1 8.56665 1C12.1022 1 13.8699 1 14.9679 2.098C16.0667 3.1975 16.0667 4.9645 16.0667 8.5C16.0667 12.0355 16.0667 13.8032 14.9679 14.9012C13.8707 16 12.1022 16 8.56665 16C5.03115 16 3.2634 16 2.16465 14.9012C1.06665 13.804 1.06665 12.0355 1.06665 8.5Z" stroke="black" stroke-opacity="0.75"/>
<path d="M1.06665 9.25H3.43665C4.1154 9.25 4.45515 9.25 4.75365 9.38725C5.05215 9.5245 5.27265 9.7825 5.7144 10.2978L6.1689 10.8272C6.61065 11.3425 6.83115 11.6005 7.12965 11.7377C7.42815 11.875 7.76715 11.875 8.44665 11.875H8.68665C9.3654 11.875 9.70515 11.875 10.0037 11.7377C10.3022 11.6005 10.5227 11.3425 10.9644 10.8272L11.4189 10.2978C11.8607 9.7825 12.0812 9.5245 12.3797 9.38725C12.6782 9.25 13.0172 9.25 13.6967 9.25H16.0667" stroke="black" stroke-opacity="0.75" stroke-linecap="round"/>
</svg>
