<svg width="86" height="36" viewBox="0 0 86 36" fill="none" xmlns="http://www.w3.org/2000/svg">
<path d="M58.19 4.55605C63.1011 2.07506 68.8989 2.07506 73.81 4.55605L75.5105 5.41514C80.3003 7.83484 83.3205 12.7443 83.3205 18.1106V18.1106C83.3205 23.4769 80.3003 28.3863 75.5105 30.8061L73.81 31.6651C68.8989 34.1461 63.1011 34.1461 58.19 31.6651L56.4895 30.8061C51.6997 28.3864 48.6795 23.4769 48.6795 18.1106V18.1106C48.6795 12.7443 51.6997 7.83484 56.4895 5.41514L58.19 4.55605Z" fill="#0057FF"/>
<circle cx="56.2012" cy="20.2023" r="3" transform="rotate(-36.9846 56.2012 20.2023)" fill="#D9D9D9"/>
<circle cx="68.9815" cy="10.5767" r="3" transform="rotate(-36.9846 68.9815 10.5767)" fill="#D9D9D9"/>
<path d="M61.9219 30.2909C72.2772 29.4846 74.9369 26.586 76.6996 19.1613" stroke="white" stroke-width="2"/>
<path d="M36.19 4.55605C41.1011 2.07506 46.8989 2.07506 51.81 4.55605L53.5105 5.41514C58.3003 7.83484 61.3205 12.7443 61.3205 18.1106V18.1106C61.3205 23.4769 58.3003 28.3863 53.5105 30.8061L51.81 31.6651C46.8989 34.1461 41.1011 34.1461 36.19 31.6651L34.4895 30.8061C29.6997 28.3864 26.6795 23.4769 26.6795 18.1106V18.1106C26.6795 12.7443 29.6997 7.83484 34.4895 5.41514L36.19 4.55605Z" fill="#05D601"/>
<circle cx="36" cy="12.6105" r="3" fill="#D9D9D9"/>
<circle cx="52" cy="12.6105" r="3" fill="#D9D9D9"/>
<path d="M34.5 24.1105C43.2569 29.6962 47.1252 28.9809 53 24.1105" stroke="white" stroke-width="2"/>
<path d="M12.19 4.55605C17.1011 2.07506 22.8989 2.07506 27.81 4.55605L29.5105 5.41514C34.3003 7.83484 37.3205 12.7443 37.3205 18.1106V18.1106C37.3205 23.4769 34.3003 28.3863 29.5105 30.8061L27.81 31.6651C22.8989 34.1461 17.1011 34.1461 12.19 31.6651L10.4895 30.8061C5.69971 28.3864 2.67949 23.4769 2.67949 18.1106V18.1106C2.67949 12.7443 5.6997 7.83484 10.4895 5.41514L12.19 4.55605Z" fill="#CF0000"/>
<path d="M12.5312 15.6887V14.6106C13.5469 14.5116 14.2552 14.3476 14.6562 14.1184C15.0573 13.884 15.3568 13.3346 15.5547 12.47H16.6641V23.6106H15.1641V15.6887H12.5312ZM24.2344 12.4231C25.6823 12.4231 26.7292 13.0194 27.375 14.2122C27.875 15.134 28.125 16.3971 28.125 18.0012C28.125 19.5221 27.8984 20.7799 27.4453 21.7747C26.7891 23.2017 25.7161 23.9153 24.2266 23.9153C22.8828 23.9153 21.8828 23.3319 21.2266 22.1653C20.6797 21.1913 20.4062 19.884 20.4062 18.2434C20.4062 16.9726 20.5703 15.8814 20.8984 14.97C21.513 13.2721 22.625 12.4231 24.2344 12.4231ZM24.2188 22.634C24.9479 22.634 25.5286 22.3111 25.9609 21.6653C26.3932 21.0194 26.6094 19.8163 26.6094 18.0559C26.6094 16.7851 26.4531 15.7408 26.1406 14.9231C25.8281 14.1002 25.2214 13.6887 24.3203 13.6887C23.4922 13.6887 22.8854 14.0793 22.5 14.8606C22.1198 15.6366 21.9297 16.7825 21.9297 18.2981C21.9297 19.4387 22.0521 20.3554 22.2969 21.0481C22.6719 22.1054 23.3125 22.634 24.2188 22.634Z" fill="white"/>
</svg>
