<svg width="11" height="20" viewBox="0 0 11 20" fill="none" xmlns="http://www.w3.org/2000/svg">
<path d="M10.151 12H0.533805C0.436436 12.0003 0.340994 12.0272 0.257752 12.0777C0.174511 12.1282 0.10662 12.2004 0.0613915 12.2867C0.0161626 12.3729 -0.0046943 12.4698 0.00106684 12.567C0.00682799 12.6642 0.0389897 12.758 0.0940882 12.8383L4.90266 19.784C5.10195 20.072 5.58174 20.072 5.78156 19.784L10.5901 12.8383C10.6458 12.7582 10.6784 12.6643 10.6845 12.567C10.6906 12.4696 10.6699 12.3725 10.6246 12.2861C10.5793 12.1996 10.5112 12.1273 10.4277 12.0769C10.3442 12.0264 10.2485 11.9998 10.151 12Z" fill="white" fill-opacity="0.75"/>
<path d="M10.151 12.5L10.1517 12.5C10.1579 12.5 10.164 12.5017 10.1692 12.5049C10.1745 12.508 10.1788 12.5126 10.1817 12.5181C10.1846 12.5236 10.1859 12.5297 10.1855 12.5359C10.1851 12.542 10.183 12.5479 10.1795 12.553L10.179 12.5537L5.37422 19.494C5.3687 19.4966 5.35733 19.5 5.34191 19.5C5.32677 19.5 5.31562 19.4967 5.31015 19.4942L0.506335 12.5554C0.506254 12.5552 0.506174 12.5551 0.506095 12.555C0.502601 12.5498 0.500562 12.5437 0.50019 12.5374C0.499811 12.531 0.501188 12.5246 0.504176 12.5189C0.507161 12.5132 0.511643 12.5085 0.517143 12.5051C0.52255 12.5018 0.528737 12.5001 0.535056 12.5L10.151 12.5Z" stroke="black" stroke-opacity="0.75"/>
<path d="M0.534715 8L10.1519 8C10.2492 7.99969 10.3447 7.97284 10.4279 7.92233C10.5112 7.87181 10.579 7.79955 10.6243 7.71333C10.6695 7.6271 10.6904 7.53017 10.6846 7.43297C10.6788 7.33577 10.6467 7.24199 10.5916 7.1617L5.78301 0.215985C5.58372 -0.0719951 5.10393 -0.0719951 4.90411 0.215985L0.0955315 7.1617C0.0398722 7.24182 0.00723229 7.33565 0.00115801 7.43301C-0.00491627 7.53037 0.0158074 7.62754 0.0610775 7.71395C0.106348 7.80036 0.174433 7.87271 0.257935 7.92314C0.341438 7.97357 0.437165 8.00015 0.534715 8Z" fill="white" fill-opacity="0.75"/>
<path d="M0.534715 7.5L0.533927 7.5C0.527756 7.50001 0.521703 7.49833 0.516425 7.49514C0.511146 7.49195 0.50684 7.48738 0.503977 7.48191C0.501114 7.47645 0.499804 7.4703 0.500188 7.46415C0.500572 7.45799 0.502636 7.45206 0.506156 7.44699L0.506628 7.44631L5.31145 0.506009C5.31697 0.503438 5.32834 0.5 5.34376 0.5C5.3589 0.5 5.37005 0.503316 5.37552 0.505803L10.1793 7.44464C10.1794 7.44477 10.1795 7.44489 10.1796 7.44502C10.1831 7.45024 10.1851 7.45629 10.1855 7.46256C10.1859 7.46898 10.1845 7.47538 10.1815 7.48107C10.1785 7.48676 10.174 7.49154 10.1685 7.49487C10.1631 7.49815 10.1569 7.49992 10.1506 7.5L0.534715 7.5ZM5.37186 0.500511L5.37191 0.50059L5.37186 0.500511Z" stroke="black" stroke-opacity="0.75"/>
</svg>
