<svg width="20" height="23" viewBox="0 0 20 23" fill="none" xmlns="http://www.w3.org/2000/svg">
<path d="M7.62068 20.6073C11.4423 16.8069 14.4317 13.769 17.7568 10.5078C18.8546 9.36127 19.5499 8.23907 19.8426 7.1413C20.3549 5.06969 19.5672 3.27578 18.1959 1.87198C16.8786 0.554656 15.4698 -0.0674175 13.9695 0.00577957C12.4692 0.0789767 10.9872 0.835223 9.52351 2.27452L0.192387 11.6422L1.72929 13.1424L11.0604 3.81138C12.0179 2.90106 13.1573 2.04284 14.4635 2.16471C16.4537 2.44411 18.2113 4.88 17.7568 6.59241C17.1806 8.11169 16.3863 8.80462 15.2868 9.904C11.9424 13.2399 9.33472 15.8195 6.08384 19.0704C4.86209 20.1868 4.07196 20.4891 2.9369 19.4363C2.35141 18.8509 2.09527 18.2776 2.16845 17.7165C2.24966 17.0618 2.62026 16.609 3.04665 16.1796L11.5727 7.65355C11.9622 7.26336 12.8492 6.51442 13.2193 6.84853C13.5033 7.50727 12.772 8.13602 12.4143 8.4952L4.58353 16.326L6.0838 17.8629L13.9512 10.0321C15.3062 8.63447 16.2798 6.92657 14.7562 5.34828C13.0712 3.90199 11.296 4.86754 10.0358 6.11673L1.50975 14.6428C0.631552 15.521 0.13143 16.4724 0.00947796 17.497C-0.0867335 18.9334 0.560876 20.0864 1.43657 20.9733C2.25969 21.7919 3.14894 22.2453 4.25422 22.254C5.58308 22.2008 6.88969 21.3255 7.62068 20.6073Z" fill="black" fill-opacity="0.64"/>
</svg>
