<svg width="40" height="40" viewBox="0 0 40 40" fill="none" xmlns="http://www.w3.org/2000/svg">
<circle cx="20" cy="20" r="20" fill="url(#paint0_linear_1194_1330)"/>
<mask id="mask0_1194_1330" style="mask-type:alpha" maskUnits="userSpaceOnUse" x="0" y="0" width="40" height="40">
<circle cx="20" cy="20" r="20" fill="white"/>
</mask>
<g mask="url(#mask0_1194_1330)">
<path d="M15.0663 5.21673C12.8629 6.68958 12.2708 9.02158 12.3793 10.2626C12.5181 11.7802 12.8607 13.7557 12.8607 13.7557C12.8607 13.7557 12.1819 14.0869 12.1819 15.4195C12.4183 18.7646 13.6631 17.3209 13.919 18.7879C14.5349 22.322 15.9424 21.6927 15.9424 23.6214C15.9424 26.834 14.4677 28.3361 9.86362 30.1168C5.24434 31.9052 0.481934 34.1554 0.481934 38.0518V40H39.5181V38.0518C39.5181 34.1554 34.7535 31.9052 30.1321 30.1187C25.528 28.3381 24.0576 26.8379 24.0576 23.6234C24.0576 21.6947 25.4607 22.3239 26.0788 18.7899C26.3369 17.3229 27.5795 18.7665 27.8202 15.4214C27.8202 14.0889 27.1393 13.7577 27.1393 13.7577C27.1393 13.7577 27.4819 11.7822 27.6186 10.2645C27.7595 8.67285 26.7554 5.27518 22.6306 4.23289C21.9084 3.5705 21.4205 2.51652 23.6412 1.45864C18.7834 1.25408 17.6535 3.53738 15.0663 5.21673Z" fill="white" fill-opacity="0.88"/>
</g>
<defs>
<linearGradient id="paint0_linear_1194_1330" x1="20" y1="0" x2="20" y2="40" gradientUnits="userSpaceOnUse">
<stop offset="0.270833" stop-color="#6AE0D9"/>
<stop offset="1" stop-color="#6AE0D9" stop-opacity="0.33"/>
</linearGradient>
</defs>
</svg>
