<svg width="86" height="35" viewBox="0 0 86 35" fill="none" xmlns="http://www.w3.org/2000/svg">
<path d="M66 0L83.3205 8.75V26.25L66 35L48.6795 26.25V8.75L66 0Z" fill="#0057FF"/>
<circle cx="56.2012" cy="19.5917" r="3" transform="rotate(-36.9846 56.2012 19.5917)" fill="#D9D9D9"/>
<circle cx="68.9815" cy="9.9661" r="3" transform="rotate(-36.9846 68.9815 9.9661)" fill="#D9D9D9"/>
<path d="M61.9219 29.6803C72.2772 28.874 74.9369 25.9754 76.6996 18.5507" stroke="white" stroke-width="2"/>
<path d="M44 0L61.3205 8.75V26.25L44 35L26.6795 26.25V8.75L44 0Z" fill="#05D601"/>
<circle cx="36" cy="11.9999" r="3" fill="#D9D9D9"/>
<circle cx="52" cy="11.9999" r="3" fill="#D9D9D9"/>
<path d="M34.5 23.4999C43.2569 29.0856 47.1252 28.3703 53 23.4999" stroke="white" stroke-width="2"/>
<path d="M20 0L37.3205 8.75V26.25L20 35L2.67949 26.25V8.75L20 0Z" fill="#CF0000"/>
<path d="M12.5312 15.0781V14C13.5469 13.901 14.2552 13.737 14.6562 13.5078C15.0573 13.2734 15.3568 12.724 15.5547 11.8594H16.6641V23H15.1641V15.0781H12.5312ZM24.2344 11.8125C25.6823 11.8125 26.7292 12.4089 27.375 13.6016C27.875 14.5234 28.125 15.7865 28.125 17.3906C28.125 18.9115 27.8984 20.1693 27.4453 21.1641C26.7891 22.5911 25.7161 23.3047 24.2266 23.3047C22.8828 23.3047 21.8828 22.7214 21.2266 21.5547C20.6797 20.5807 20.4062 19.2734 20.4062 17.6328C20.4062 16.362 20.5703 15.2708 20.8984 14.3594C21.513 12.6615 22.625 11.8125 24.2344 11.8125ZM24.2188 22.0234C24.9479 22.0234 25.5286 21.7005 25.9609 21.0547C26.3932 20.4089 26.6094 19.2057 26.6094 17.4453C26.6094 16.1745 26.4531 15.1302 26.1406 14.3125C25.8281 13.4896 25.2214 13.0781 24.3203 13.0781C23.4922 13.0781 22.8854 13.4688 22.5 14.25C22.1198 15.026 21.9297 16.1719 21.9297 17.6875C21.9297 18.8281 22.0521 19.7448 22.2969 20.4375C22.6719 21.4948 23.3125 22.0234 24.2188 22.0234Z" fill="white"/>
</svg>
