<svg width="10" height="9" viewBox="0 0 10 9" fill="none" xmlns="http://www.w3.org/2000/svg">
<path d="M9.23528 1.13643e-06H1.13505C1.05303 0.000344548 0.972647 0.0305563 0.902534 0.0873838C0.832422 0.144211 0.775241 0.225502 0.737146 0.322508C0.699051 0.419513 0.681484 0.52856 0.686336 0.637909C0.691189 0.747257 0.718277 0.852768 0.764685 0.943083L4.8148 8.75702C4.98265 9.08099 5.38677 9.08099 5.55507 8.75702L9.60519 0.943083C9.65207 0.852956 9.67956 0.747392 9.68467 0.637862C9.68979 0.528331 9.67234 0.419022 9.63421 0.321811C9.59608 0.2246 9.53873 0.143204 9.4684 0.086469C9.39807 0.0297337 9.31744 -0.000171722 9.23528 1.13643e-06Z" fill="white" fill-opacity="0.75"/>
<path d="M9.23528 0.250001L9.2358 0.250001C9.25486 0.24996 9.28095 0.256464 9.31143 0.28105C9.34302 0.306528 9.3767 0.349952 9.40147 0.413099C9.42612 0.475935 9.43851 0.550001 9.43495 0.626196C9.43138 0.702461 9.41227 0.772217 9.3834 0.827717L9.38323 0.828039L5.33322 8.64177C5.33319 8.64183 5.33315 8.6419 5.33312 8.64196C5.28887 8.72699 5.22791 8.75 5.18477 8.75C5.14163 8.75 5.08082 8.72702 5.03678 8.64201L5.03676 8.64197L0.987047 0.828824C0.986995 0.828723 0.986945 0.828624 0.986893 0.828524C0.958279 0.772719 0.939468 0.702921 0.93609 0.626825C0.93271 0.550655 0.945187 0.476681 0.969845 0.413891C0.994622 0.3508 1.02828 0.307269 1.05995 0.281601C1.09032 0.256982 1.11646 0.250179 1.13567 0.250001H9.23528Z" stroke="black" stroke-opacity="0.75" stroke-width="0.5"/>
</svg>
